<?xml version="1.0" encoding="UTF-8"?>
<svg id="Layer_2" data-name="Layer 2" xmlns="http://www.w3.org/2000/svg" viewBox="0 0 148.4 26.68">
  <defs>
    <style>
      .cls-1 {
        fill: #d2d2d2;
      }
    </style>
  </defs>
  <g id="Layer_1-2" data-name="Layer 1">
    <g id="Checkpoint_Logo_Traced_Text" data-name="Checkpoint Logo Traced Text">
      <g>
        <polygon class="cls-1" points="20.12 11.33 21.27 10.17 19.39 8.29 20.56 7.12 18.71 5.27 19.89 4.09 17.9 2.1 16.72 3.28 14.84 1.4 13.67 2.57 11.79 .69 10.64 1.84 8.8 0 6.81 1.99 8.8 3.98 9.95 2.83 11.79 4.67 12.96 3.5 14.84 5.39 16.02 4.2 17.76 5.94 16.58 7.12 18.46 9 17.29 10.17 19.17 12.06 18.02 13.21 20.01 15.2 22 13.21 20.12 11.33"/>
        <polygon class="cls-1" points="13.2 18.02 12.05 19.17 10.21 17.33 9.04 18.5 7.16 16.61 5.98 17.8 4.24 16.06 5.42 14.88 3.54 13 4.71 11.83 2.83 9.94 3.98 8.79 1.99 6.8 0 8.79 1.88 10.67 .73 11.83 2.61 13.71 1.44 14.88 3.29 16.73 2.11 17.91 4.1 19.9 5.28 18.72 7.16 20.6 8.33 19.43 10.21 21.31 11.36 20.16 13.2 22 15.19 20.01 13.2 18.02"/>
        <polygon class="cls-1" points="14.09 12.51 12.63 11.05 12.93 10.75 14.4 12.22 16 10.62 14.4 9.03 13.08 10.35 11.68 8.95 13 7.63 11.4 6.03 9.81 7.63 11.33 9.16 11.04 9.45 9.6 8.02 9.6 8.02 8 6.42 6.41 8.02 7.88 9.49 7.88 9.5 9.44 11.05 9.21 11.28 7.69 9.75 6.09 11.35 7.69 12.95 9.09 11.55 10.48 12.94 9.08 14.35 10.68 15.94 12.28 14.35 10.81 12.88 11.03 12.65 12.38 14 12.38 14 13.98 15.59 15.58 14 14.09 12.51 14.09 12.51"/>
      </g>
      <g>
        <path class="cls-1" d="M37.63,7.55h2.43c.08-.39.12-.84.12-1.37s-.04-1-.12-1.37h-1.22c.08-.39.12-.84.12-1.37s-.04-1-.12-1.37h-6.08c-.08.36-.12.82-.12,1.37s.04.98.12,1.37h-1.22c-.08.36-.12.82-.12,1.37s.04.98.12,1.37h-1.22c-.08.36-.12.82-.12,1.37s.04.98.12,1.37c-.08.36-.12.82-.12,1.37s.04.98.12,1.37c-.08.36-.12.82-.12,1.37s.04.98.12,1.37h1.22c-.08.36-.12.82-.12,1.37s.04.98.12,1.37h1.22c-.08.36-.12.82-.12,1.37s.04.98.12,1.37h6.08c.08-.39.12-.84.12-1.37s-.04-1-.12-1.37h1.22c.08-.39.12-.84.12-1.37s-.04-1-.12-1.37h-2.43c-.08.36-.12.82-.12,1.37s.04.98.12,1.37h-3.65c.08-.39.12-.84.12-1.37s-.04-1-.12-1.37h-1.22c.08-.39.12-.84.12-1.37s-.04-1-.12-1.37c.08-.39.12-.84.12-1.37s-.04-1-.12-1.37c.08-.39.12-.84.12-1.37s-.04-1-.12-1.37h1.22c.08-.39.12-.84.12-1.37s-.04-1-.12-1.37h3.65c-.08.36-.12.82-.12,1.37s.04.98.12,1.37Z"/>
        <path class="cls-1" d="M52.22,10.28h-1.52c.08-.39.12-.84.12-1.37s-.04-1-.12-1.37h-4.86c-.08.36-.12.82-.12,1.37s.04.98.12,1.37h3.95c-.08.36-.12.82-.12,1.37s.04.98.12,1.37c-.08.36-.12.82-.12,1.37s.04.98.12,1.37c-.08.36-.12.82-.12,1.37s.04.98.12,1.37c-.08.36-.12.82-.12,1.37s.04.98.12,1.37h2.43c.08-.39.12-.84.12-1.37s-.04-1-.12-1.37c.08-.39.12-.84.12-1.37s-.04-1-.12-1.37c.08-.39.12-.84.12-1.37s-.04-1-.12-1.37c.08-.39.12-.84.12-1.37s-.04-1-.12-1.37Z"/>
        <path class="cls-1" d="M45.05,8.91c0-.55-.04-1-.12-1.37.08-.39.12-.84.12-1.37s-.04-1-.12-1.37c.08-.39.12-.84.12-1.37s-.04-1-.12-1.37h-2.43c-.08.36-.12.82-.12,1.37s.04.98.12,1.37c-.08.36-.12.82-.12,1.37s.04.98.12,1.37c-.08.36-.12.82-.12,1.37s.04.98.12,1.37c-.08.36-.12.82-.12,1.37s.04.98.12,1.37c-.08.36-.12.82-.12,1.37s.04.98.12,1.37c-.08.36-.12.82-.12,1.37s.04.98.12,1.37c-.08.36-.12.82-.12,1.37s.04.98.12,1.37h2.43c.08-.39.12-.84.12-1.37s-.04-1-.12-1.37c.08-.39.12-.84.12-1.37s-.04-1-.12-1.37c.08-.39.12-.84.12-1.37s-.04-1-.12-1.37h.91c.08-.39.12-.84.12-1.37s-.04-1-.12-1.37h-.91c.08-.39.12-.84.12-1.37Z"/>
        <path class="cls-1" d="M64.38,10.28h-1.22c.08-.39.12-.84.12-1.37s-.04-1-.12-1.37h-6.08c-.08.36-.12.82-.12,1.37s.04.98.12,1.37h-1.52c-.08.36-.12.82-.12,1.37s.04.98.12,1.37h-.91c-.08.36-.12.82-.12,1.37s.04.98.12,1.37h.91c-.08.36-.12.82-.12,1.37s.04.98.12,1.37h1.52c-.08.36-.12.82-.12,1.37s.04.98.12,1.37h6.08c.08-.39.12-.84.12-1.37s-.04-1-.12-1.37h-5.17c.08-.39.12-.84.12-1.37s-.04-1-.12-1.37h6.38c.08-.39.12-.84.12-1.37s-.04-1-.12-1.37c.08-.39.12-.84.12-1.37s-.04-1-.12-1.37ZM61.95,13.01h-3.95c.08-.39.12-.84.12-1.37s-.04-1-.12-1.37h3.95c-.08.36-.12.82-.12,1.37s.04.98.12,1.37Z"/>
        <path class="cls-1" d="M74.11,13.01h2.43c.08-.39.12-.84.12-1.37s-.04-1-.12-1.37h-1.22c.08-.39.12-.84.12-1.37s-.04-1-.12-1.37h-6.08c-.08.36-.12.82-.12,1.37s.04.98.12,1.37h-1.22c-.08.36-.12.82-.12,1.37s.04.98.12,1.37h-1.22c-.08.36-.12.82-.12,1.37s.04.98.12,1.37h1.22c-.08.36-.12.82-.12,1.37s.04.98.12,1.37h1.22c-.08.36-.12.82-.12,1.37s.04.98.12,1.37h6.08c.08-.39.12-.84.12-1.37s-.04-1-.12-1.37h1.22c.08-.39.12-.84.12-1.37s-.04-1-.12-1.37h-2.43c-.08.36-.12.82-.12,1.37s.04.98.12,1.37h-3.65c.08-.39.12-.84.12-1.37s-.04-1-.12-1.37h-1.22c.08-.39.12-.84.12-1.37s-.04-1-.12-1.37h1.22c.08-.39.12-.84.12-1.37s-.04-1-.12-1.37h3.65c-.08.36-.12.82-.12,1.37s.04.98.12,1.37Z"/>
        <path class="cls-1" d="M85.66,18.48c.08-.39.12-.84.12-1.37s-.04-1-.12-1.37h-1.22c.08-.39.12-.84.12-1.37s-.04-1-.12-1.37h1.22c.08-.39.12-.84.12-1.37s-.04-1-.12-1.37h2.43c.08-.39.12-.84.12-1.37s-.04-1-.12-1.37h-3.65c-.08.36-.12.82-.12,1.37s.04.98.12,1.37h-1.22c-.08.36-.12.82-.12,1.37s.04.98.12,1.37h-1.82c.08-.39.12-.84.12-1.37s-.04-1-.12-1.37c.08-.39.12-.84.12-1.37s-.04-1-.12-1.37c.08-.39.12-.84.12-1.37s-.04-1-.12-1.37c.08-.39.12-.84.12-1.37s-.04-1-.12-1.37h-2.43c-.08.36-.12.82-.12,1.37s.04.98.12,1.37c-.08.36-.12.82-.12,1.37s.04.98.12,1.37c-.08.36-.12.82-.12,1.37s.04.98.12,1.37c-.08.36-.12.82-.12,1.37s.04.98.12,1.37c-.08.36-.12.82-.12,1.37s.04.98.12,1.37c-.08.36-.12.82-.12,1.37s.04.98.12,1.37c-.08.36-.12.82-.12,1.37s.04.98.12,1.37h2.43c.08-.39.12-.84.12-1.37s-.04-1-.12-1.37c.08-.39.12-.84.12-1.37s-.04-1-.12-1.37h1.82c-.08.36-.12.82-.12,1.37s.04.98.12,1.37h1.22c-.08.36-.12.82-.12,1.37s.04.98.12,1.37h4.26c.08-.39.12-.84.12-1.37s-.04-1-.12-1.37h-3.04Z"/>
        <path class="cls-1" d="M99.64,13.01c.08-.39.12-.84.12-1.37s-.04-1-.12-1.37h-1.22c.08-.39.12-.84.12-1.37s-.04-1-.12-1.37h-3.65c-.08.36-.12.82-.12,1.37s.04.98.12,1.37h2.43c-.08.36-.12.82-.12,1.37s.04.98.12,1.37h1.22c-.08.36-.12.82-.12,1.37s.04.98.12,1.37h-1.22c-.08.36-.12.82-.12,1.37s.04.98.12,1.37h-3.65c.08-.39.12-.84.12-1.37s-.04-1-.12-1.37c.08-.39.12-.84.12-1.37s-.04-1-.12-1.37h1.22c.08-.39.12-.84.12-1.37s-.04-1-.12-1.37h-1.22c.08-.39.12-.84.12-1.37s-.04-1-.12-1.37h-2.43c-.08.36-.12.82-.12,1.37s.04.98.12,1.37c-.08.36-.12.82-.12,1.37s.04.98.12,1.37c-.08.36-.12.82-.12,1.37s.04.98.12,1.37c-.08.36-.12.82-.12,1.37s.04.98.12,1.37c-.08.36-.12.82-.12,1.37s.04.98.12,1.37c-.08.36-.12.82-.12,1.37s.04.98.12,1.37c-.08.36-.12.82-.12,1.37s.04.98.12,1.37h2.43c.08-.39.12-.84.12-1.37s-.04-1-.12-1.37c.08-.39.12-.84.12-1.37s-.04-1-.12-1.37h4.86c.08-.39.12-.84.12-1.37s-.04-1-.12-1.37h1.22c.08-.39.12-.84.12-1.37s-.04-1-.12-1.37h1.22c.08-.39.12-.84.12-1.37s-.04-1-.12-1.37h-1.22Z"/>
        <path class="cls-1" d="M112.11,13.01c.08-.39.12-.84.12-1.37s-.04-1-.12-1.37h-1.52c.08-.39.12-.84.12-1.37s-.04-1-.12-1.37h-4.86c-.08.36-.12.82-.12,1.37s.04.98.12,1.37h-1.52c-.08.36-.12.82-.12,1.37s.04.98.12,1.37h-.91c-.08.36-.12.82-.12,1.37s.04.98.12,1.37h.91c-.08.36-.12.82-.12,1.37s.04.98.12,1.37h1.52c-.08.36-.12.82-.12,1.37s.04.98.12,1.37h4.86c.08-.39.12-.84.12-1.37s-.04-1-.12-1.37h1.52c.08-.39.12-.84.12-1.37s-.04-1-.12-1.37h.91c.08-.39.12-.84.12-1.37s-.04-1-.12-1.37h-.91ZM110.59,15.74h-.91c-.08.36-.12.82-.12,1.37s.04.98.12,1.37h-3.04c.08-.39.12-.84.12-1.37s-.04-1-.12-1.37h-.91c.08-.39.12-.84.12-1.37s-.04-1-.12-1.37h.91c.08-.39.12-.84.12-1.37s-.04-1-.12-1.37h3.04c-.08.36-.12.82-.12,1.37s.04.98.12,1.37h.91c-.08.36-.12.82-.12,1.37s.04.98.12,1.37Z"/>
        <path class="cls-1" d="M121.53,18.48c.08-.39.12-.84.12-1.37s-.04-1-.12-1.37c.08-.39.12-.84.12-1.37s-.04-1-.12-1.37c.08-.39.12-.84.12-1.37s-.04-1-.12-1.37c.08-.39.12-.84.12-1.37s-.04-1-.12-1.37h-4.26c-.08.36-.12.82-.12,1.37s.04.98.12,1.37h1.82c-.08.36-.12.82-.12,1.37s.04.98.12,1.37c-.08.36-.12.82-.12,1.37s.04.98.12,1.37c-.08.36-.12.82-.12,1.37s.04.98.12,1.37h-2.43c-.08.36-.12.82-.12,1.37s.04.98.12,1.37h7.3c.08-.39.12-.84.12-1.37s-.04-1-.12-1.37h-2.43Z"/>
        <path class="cls-1" d="M121.53,4.81c.08-.39.12-.84.12-1.37s-.04-1-.12-1.37h-2.43c-.08.36-.12.82-.12,1.37s.04.98.12,1.37h2.43Z"/>
        <path class="cls-1" d="M137.34,10.28h-1.52c.08-.39.12-.84.12-1.37s-.04-1-.12-1.37h-4.87c-.08.36-.12.82-.12,1.37s.04.98.12,1.37h3.95c-.08.36-.12.82-.12,1.37s.04.98.12,1.37c-.08.36-.12.82-.12,1.37s.04.98.12,1.37c-.08.36-.12.82-.12,1.37s.04.98.12,1.37c-.08.36-.12.82-.12,1.37s.04.98.12,1.37h2.43c.08-.39.12-.84.12-1.37s-.04-1-.12-1.37c.08-.39.12-.84.12-1.37s-.04-1-.12-1.37c.08-.39.12-.84.12-1.37s-.04-1-.12-1.37c.08-.39.12-.84.12-1.37s-.04-1-.12-1.37Z"/>
        <path class="cls-1" d="M129.86,8.91c0-.55-.04-1-.12-1.37h-2.13c-.08.36-.12.82-.12,1.37s.04.98.12,1.37c-.08.36-.12.82-.12,1.37s.04.98.12,1.37c-.08.36-.12.82-.12,1.37s.04.98.12,1.37c-.08.36-.12.82-.12,1.37s.04.98.12,1.37c-.08.36-.12.82-.12,1.37s.04.98.12,1.37h2.43c.08-.39.12-.84.12-1.37s-.04-1-.12-1.37c.08-.39.12-.84.12-1.37s-.04-1-.12-1.37c.08-.39.12-.84.12-1.37s-.04-1-.12-1.37h.91c.08-.39.12-.84.12-1.37s-.04-1-.12-1.37h-1.21c.08-.39.12-.84.12-1.37Z"/>
        <path class="cls-1" d="M144.63,18.48c.08-.39.12-.84.12-1.37s-.04-1-.12-1.37c.08-.39.12-.84.12-1.37s-.04-1-.12-1.37c.08-.39.12-.84.12-1.37s-.04-1-.12-1.37h3.65c.08-.39.12-.84.12-1.37s-.04-1-.12-1.37h-3.65c.08-.39.12-.84.12-1.37s-.04-1-.12-1.37c.08-.39.12-.84.12-1.37s-.04-1-.12-1.37h-2.43c-.08.36-.12.82-.12,1.37s.04.98.12,1.37c-.08.36-.12.82-.12,1.37s.04.98.12,1.37h-2.43c-.08.36-.12.82-.12,1.37s.04.98.12,1.37h2.43c-.08.36-.12.82-.12,1.37s.04.98.12,1.37c-.08.36-.12.82-.12,1.37s.04.98.12,1.37c-.08.36-.12.82-.12,1.37s.04.98.12,1.37h1.22c-.08.36-.12.82-.12,1.37s.04.98.12,1.37h4.86c.08-.39.12-.84.12-1.37s-.04-1-.12-1.37h-3.65Z"/>
      </g>
    </g>
  </g>
</svg>