<?xml version="1.0" encoding="UTF-8"?>
<svg id="Layer_2" data-name="Layer 2" xmlns="http://www.w3.org/2000/svg" viewBox="0 0 64 64">
  <defs>
    <style>
      .cls-1 {
        fill: #d2d2d2;
      }
    </style>
  </defs>
  <g id="Layer_1-2" data-name="Layer 1">
    <g id="Checkpoint_Emblem" data-name="Checkpoint Emblem">
      <polygon class="cls-1" points="58.52 32.95 61.88 29.59 56.41 24.12 59.81 20.72 54.43 15.34 57.87 11.9 52.07 6.1 48.63 9.55 43.16 4.07 39.77 7.47 34.3 2 30.95 5.35 25.61 0 25.61 0 19.81 5.79 25.61 11.59 28.95 8.25 34.3 13.59 37.69 10.19 43.16 15.66 46.6 12.22 51.66 17.28 48.22 20.72 53.69 26.19 50.29 29.59 55.77 35.07 52.41 38.43 58.21 44.23 64 38.43 64 38.43 58.52 32.95"/>
      <polygon class="cls-1" points="35.05 55.76 29.7 50.41 26.31 53.81 20.84 48.34 17.4 51.78 12.34 46.72 15.78 43.28 10.31 37.81 13.71 34.41 8.23 28.93 11.59 25.57 5.79 19.77 0 25.57 5.48 31.05 2.12 34.41 7.59 39.88 4.19 43.28 9.57 48.66 6.13 52.1 11.93 57.9 15.37 54.45 20.84 59.93 24.23 56.53 29.7 62 33.05 58.65 38.39 64 44.19 58.21 38.39 52.41 35.05 55.76"/>
      <polygon class="cls-1" points="41.88 35.56 46.53 30.91 41.88 26.26 38.05 30.1 33.99 26.04 37.83 22.2 33.18 17.55 28.53 22.2 32.96 26.63 32.1 27.49 27.93 23.32 27.93 23.32 23.28 18.67 18.64 23.32 22.93 27.62 22.93 27.62 27.45 32.14 26.79 32.81 22.36 28.37 17.71 33.02 22.36 37.67 26.44 33.59 30.5 37.65 26.42 41.73 31.06 46.38 35.71 41.73 31.44 37.46 32.1 36.79 36.34 41.03 36.34 41.03 40.68 45.37 45.32 40.72 40.68 36.07 36.75 32.14 37.61 31.28 41.88 35.56"/>
    </g>
  </g>
</svg>