<?xml version="1.0" encoding="UTF-8"?>
<svg id="Layer_2" data-name="Layer 2" xmlns="http://www.w3.org/2000/svg" viewBox="0 0 350 200">
  <defs>
    <style>
      .cls-1 {
        font-size: 4px;
        letter-spacing: .25em;
      }

      .cls-1, .cls-2 {
        fill: #75d8cf;
        font-family: VT323-Regular, VT323;
      }

      .cls-2 {
        font-size: 3.5px;
        letter-spacing: .25em;
      }

      .cls-3 {
        fill: #455656;
      }

      .cls-4 {
        fill: #bfeeef;
      }
    </style>
  </defs>
  <g id="Card_Checkpoint_Light">
    <rect class="cls-4" width="350" height="200"/>
    <g id="Vertical">
      <text class="cls-2" transform="translate(39.33 .4) rotate(90) scale(1.14 1)"><tspan x="0" y="0">*****************************************************************************</tspan></text>
      <text class="cls-2" transform="translate(77.82 .4) rotate(90) scale(1.14 1)"><tspan x="0" y="0">*****************************************************************************</tspan></text>
      <text class="cls-2" transform="translate(116.32 .4) rotate(90) scale(1.14 1)"><tspan x="0" y="0">*****************************************************************************</tspan></text>
      <text class="cls-2" transform="translate(154.81 .4) rotate(90) scale(1.14 1)"><tspan x="0" y="0">*****************************************************************************</tspan></text>
      <text class="cls-2" transform="translate(193.3 .4) rotate(90) scale(1.14 1)"><tspan x="0" y="0">*****************************************************************************</tspan></text>
      <text class="cls-2" transform="translate(270.28 .4) rotate(90) scale(1.14 1)"><tspan x="0" y="0">*****************************************************************************</tspan></text>
      <text class="cls-2" transform="translate(308.78 .4) rotate(90) scale(1.14 1)"><tspan x="0" y="0">*****************************************************************************</tspan></text>
      <text class="cls-2" transform="translate(231.79 .4) rotate(90) scale(1.14 1)"><tspan x="0" y="0">*****************************************************************************</tspan></text>
    </g>
    <g id="Horizontal">
      <text class="cls-1" transform="translate(.26 20.93) scale(.87 1)"><tspan x="0" y="0">**********************************************************************************************************************************************************</tspan></text>
      <text class="cls-1" transform="translate(.26 38.74) scale(.87 1)"><tspan x="0" y="0">**********************************************************************************************************************************************************</tspan></text>
      <text class="cls-1" transform="translate(.26 92.17) scale(.87 1)"><tspan x="0" y="0">**********************************************************************************************************************************************************</tspan></text>
      <text class="cls-1" transform="translate(.26 74.36) scale(.87 1)"><tspan x="0" y="0">**********************************************************************************************************************************************************</tspan></text>
      <text class="cls-1" transform="translate(.26 56.55) scale(.87 1)"><tspan x="0" y="0">**********************************************************************************************************************************************************</tspan></text>
      <text class="cls-1" transform="translate(.26 109.99) scale(.87 1)"><tspan x="0" y="0">**********************************************************************************************************************************************************</tspan></text>
      <text class="cls-1" transform="translate(.26 127.8) scale(.87 1)"><tspan x="0" y="0">**********************************************************************************************************************************************************</tspan></text>
      <text class="cls-1" transform="translate(.26 163.42) scale(.87 1)"><tspan x="0" y="0">**********************************************************************************************************************************************************</tspan></text>
      <text class="cls-1" transform="translate(.26 181.23) scale(.87 1)"><tspan x="0" y="0">**********************************************************************************************************************************************************</tspan></text>
      <text class="cls-1" transform="translate(.26 145.61) scale(.87 1)"><tspan x="0" y="0">**********************************************************************************************************************************************************</tspan></text>
    </g>
    <g>
      <polygon class="cls-3" points="235 112.05 224.73 101.79 231.03 95.49 220.77 85.23 227.14 78.86 217.05 68.77 223.5 62.32 212.64 51.46 206.19 57.91 195.93 47.65 189.56 54.02 179.31 43.76 173.04 50.03 163.01 40.01 163.01 40.01 152.15 50.88 163.01 61.74 169.28 55.47 179.31 65.49 185.68 59.12 195.93 69.38 202.38 62.93 211.87 72.41 205.41 78.86 215.67 89.12 209.3 95.49 219.57 105.76 213.27 112.05 224.14 122.92 235 112.06 235 112.05"/>
      <polygon class="cls-3" points="118.97 104.51 129.23 114.77 122.86 121.14 132.95 131.23 126.5 137.68 137.36 148.54 143.81 142.09 154.07 152.35 160.44 145.98 170.69 156.24 176.96 149.96 186.99 159.99 197.85 149.12 186.99 138.26 180.72 144.53 170.69 134.51 164.32 140.88 154.07 130.62 147.62 137.07 138.13 127.59 144.59 121.14 134.33 110.88 140.7 104.51 130.43 94.24 136.73 87.94 125.86 77.08 115 87.94 125.27 98.21 118.97 104.51"/>
      <polygon class="cls-3" points="183.13 116.92 183.13 116.92 191.27 125.06 199.98 116.34 191.27 107.63 191.27 107.63 183.91 100.27 185.52 98.66 193.53 106.67 202.25 97.95 193.53 89.24 186.34 96.43 178.74 88.82 185.93 81.63 177.21 72.92 168.5 81.63 176.8 89.94 175.19 91.55 167.37 83.73 167.37 83.73 158.66 75.02 149.94 83.73 158 91.79 158 91.79 166.48 100.27 165.23 101.51 156.92 93.2 148.21 101.92 156.92 110.64 164.57 102.99 172.18 110.59 164.53 118.24 173.25 126.96 181.96 118.24 173.95 110.23 175.19 108.98 183.13 116.92"/>
    </g>
  </g>
</svg>