<?xml version="1.0" encoding="UTF-8"?>
<svg id="Checkpoint" xmlns="http://www.w3.org/2000/svg" version="1.1" viewBox="0 0 768 256">
  <!-- Generator: Adobe Illustrator 29.8.2, SVG Export Plug-In . SVG Version: 2.1.1 Build 3)  -->
  <defs>
    <style>
      .st0 {
        fill: #2d2d2d;
      }
    </style>
  </defs>
  <g id="Checkpoint1" data-name="Checkpoint">
    <g>
      <rect class="st0" x="50.1" y="75.2" width="13.1" height="13.1" transform="translate(-41.2 64) rotate(-45)"/>
      <rect class="st0" x="63.9" y="78.4" width="13.1" height="13.1" transform="translate(-39.4 74.7) rotate(-45)"/>
      <rect class="st0" x="78" y="81.7" width="13.1" height="13.1" transform="translate(-37.6 85.6) rotate(-45)"/>
      <rect class="st0" x="92.2" y="85" width="13.1" height="13.1" transform="translate(-35.8 96.6) rotate(-45)"/>
      <rect class="st0" x="95.3" y="99" width="13.1" height="13.1" transform="translate(-44.8 102.9) rotate(-45)"/>
      <rect class="st0" x="98.6" y="113.1" width="13.1" height="13.1" transform="translate(-53.8 109.4) rotate(-45)"/>
      <rect class="st0" x="102" y="127.2" width="13.1" height="13.1" transform="translate(-62.8 115.9) rotate(-45)"/>
      <rect class="st0" x="70.4" y="158.7" width="13.1" height="13.1" transform="translate(-94.3 102.8) rotate(-45)"/>
      <rect class="st0" x="56.6" y="155.5" width="13.1" height="13.1" transform="translate(-96.1 92.1) rotate(-45)"/>
      <rect class="st0" x="42.5" y="152.2" width="13.1" height="13.1" transform="translate(-97.9 81.1) rotate(-45)"/>
      <rect class="st0" x="28.3" y="149" width="13.1" height="13.1" transform="translate(-99.8 70.2) rotate(-45)"/>
      <rect class="st0" x="25.2" y="134.9" width="13.1" height="13.1" transform="translate(-90.7 63.9) rotate(-45)"/>
      <rect class="st0" x="21.9" y="120.8" width="13.1" height="13.1" transform="translate(-81.7 57.4) rotate(-45)"/>
      <rect class="st0" x="18.5" y="106.7" width="13.1" height="13.1" transform="translate(-72.7 50.9) rotate(-45)"/>
      <rect class="st0" x="46.2" y="119.9" width="10.5" height="10.5" transform="translate(-73.4 73) rotate(-45)"/>
      <rect class="st0" x="60.1" y="133.8" width="10.5" height="10.5" transform="translate(-79.2 86.9) rotate(-45)"/>
      <rect class="st0" x="77.3" y="116.5" width="10.5" height="10.5" transform="translate(-61.9 94) rotate(-45)"/>
      <rect class="st0" x="63.4" y="102.7" width="10.5" height="10.5" transform="translate(-56.2 80.2) rotate(-45)"/>
      <rect class="st0" x="64.4" y="115.8" width="10.5" height="10.5" transform="translate(-65.2 84.7) rotate(-45)"/>
      <rect class="st0" x="54.5" y="111.3" width="10.5" height="10.5" transform="translate(-64.9 76.4) rotate(-45)"/>
      <rect class="st0" x="47.7" y="104.4" width="10.5" height="10.5" transform="translate(-62.1 69.5) rotate(-45)"/>
      <rect class="st0" x="75.4" y="132.1" width="10.5" height="10.5" transform="translate(-73.5 97.2) rotate(-45)"/>
      <rect class="st0" x="68.5" y="125.2" width="10.5" height="10.5" transform="translate(-70.7 90.3) rotate(-45)"/>
      <rect class="st0" x="59.8" y="120.5" width="10.5" height="10.5" transform="translate(-69.8 82.8) rotate(-45)"/>
    </g>
    <g>
      <path class="st0" d="M203.2,145.4c.4,1.7.6,3.8.6,6.3s-.2,4.5-.6,6.3h-6c.4,1.7.6,3.8.6,6.3s-.2,4.5-.6,6.3h-30.2c-.4-1.8-.6-3.9-.6-6.3s.2-4.6.6-6.3h-6c-.4-1.8-.6-3.9-.6-6.3s.2-4.6.6-6.3h-6c-.4-1.8-.6-3.9-.6-6.3s.2-4.6.6-6.3c-.4-1.8-.6-3.9-.6-6.3s.2-4.6.6-6.3c-.4-1.8-.6-3.9-.6-6.3s.2-4.6.6-6.3h6c-.4-1.8-.6-3.9-.6-6.3s.2-4.6.6-6.3h6c-.4-1.8-.6-3.9-.6-6.3s.2-4.6.6-6.3h30.2c.4,1.7.6,3.8.6,6.3s-.2,4.5-.6,6.3h6c.4,1.7.6,3.8.6,6.3s-.2,4.5-.6,6.3h-12.1c-.4-1.8-.6-3.9-.6-6.3s.2-4.6.6-6.3h-18.1c.4,1.7.6,3.8.6,6.3s-.2,4.5-.6,6.3h-6c.4,1.7.6,3.8.6,6.3s-.2,4.5-.6,6.3c.4,1.7.6,3.8.6,6.3s-.2,4.5-.6,6.3c.4,1.7.6,3.8.6,6.3s-.2,4.5-.6,6.3h6c.4,1.7.6,3.8.6,6.3s-.2,4.5-.6,6.3h18.1c-.4-1.8-.6-3.9-.6-6.3s.2-4.6.6-6.3h12.1Z"/>
      <path class="st0" d="M227.3,120.1h4.5c.4,1.7.6,3.8.6,6.3s-.2,4.5-.6,6.3h-4.5c.4,1.7.6,3.8.6,6.3s-.2,4.5-.6,6.3c.4,1.7.6,3.8.6,6.3s-.2,4.5-.6,6.3c.4,1.7.6,3.8.6,6.3s-.2,4.5-.6,6.3h-12.1c-.4-1.8-.6-3.9-.6-6.3s.2-4.6.6-6.3c-.4-1.8-.6-3.9-.6-6.3s.2-4.6.6-6.3c-.4-1.8-.6-3.9-.6-6.3s.2-4.6.6-6.3c-.4-1.8-.6-3.9-.6-6.3s.2-4.6.6-6.3c-.4-1.8-.6-3.9-.6-6.3s.2-4.6.6-6.3c-.4-1.8-.6-3.9-.6-6.3s.2-4.6.6-6.3c-.4-1.8-.6-3.9-.6-6.3s.2-4.6.6-6.3h12.1c.4,1.7.6,3.8.6,6.3s-.2,4.5-.6,6.3c.4,1.7.6,3.8.6,6.3s-.2,4.5-.6,6.3c.4,1.7.6,3.8.6,6.3s-.2,4.5-.6,6.3ZM264.1,139c0,2.4-.2,4.5-.6,6.3.4,1.7.6,3.8.6,6.3s-.2,4.5-.6,6.3c.4,1.7.6,3.8.6,6.3s-.2,4.5-.6,6.3h-12.1c-.4-1.8-.6-3.9-.6-6.3s.2-4.6.6-6.3c-.4-1.8-.6-3.9-.6-6.3s.2-4.6.6-6.3c-.4-1.8-.6-3.9-.6-6.3s.2-4.6.6-6.3c-.4-1.8-.6-3.9-.6-6.3s.2-4.6.6-6.3h-19.6c-.4-1.8-.6-3.9-.6-6.3s.2-4.6.6-6.3h24.1c.4,1.7.6,3.8.6,6.3s-.2,4.5-.6,6.3h7.5c.4,1.7.6,3.8.6,6.3s-.2,4.5-.6,6.3c.4,1.7.6,3.8.6,6.3Z"/>
      <path class="st0" d="M323.9,132.7c.4,1.7.6,3.8.6,6.3s-.2,4.5-.6,6.3h-31.7c.4,1.7.6,3.8.6,6.3s-.2,4.5-.6,6.3h25.6c.4,1.7.6,3.8.6,6.3s-.2,4.5-.6,6.3h-30.2c-.4-1.8-.6-3.9-.6-6.3s.2-4.6.6-6.3h-7.5c-.4-1.8-.6-3.9-.6-6.3s.2-4.6.6-6.3h-4.5c-.4-1.8-.6-3.9-.6-6.3s.2-4.6.6-6.3h4.5c-.4-1.8-.6-3.9-.6-6.3s.2-4.6.6-6.3h7.5c-.4-1.8-.6-3.9-.6-6.3s.2-4.6.6-6.3h30.2c.4,1.7.6,3.8.6,6.3s-.2,4.5-.6,6.3h6c.4,1.7.6,3.8.6,6.3s-.2,4.5-.6,6.3ZM311.2,126.4c0-2.5.2-4.6.6-6.3h-19.6c.4,1.7.6,3.8.6,6.3s-.2,4.5-.6,6.3h19.6c-.4-1.8-.6-3.9-.6-6.3Z"/>
      <path class="st0" d="M384.2,145.4c.4,1.7.6,3.8.6,6.3s-.2,4.5-.6,6.3h-6c.4,1.7.6,3.8.6,6.3s-.2,4.5-.6,6.3h-30.2c-.4-1.8-.6-3.9-.6-6.3s.2-4.6.6-6.3h-6c-.4-1.8-.6-3.9-.6-6.3s.2-4.6.6-6.3h-6c-.4-1.8-.6-3.9-.6-6.3s.2-4.6.6-6.3h6c-.4-1.8-.6-3.9-.6-6.3s.2-4.6.6-6.3h6c-.4-1.8-.6-3.9-.6-6.3s.2-4.6.6-6.3h30.2c.4,1.7.6,3.8.6,6.3s-.2,4.5-.6,6.3h6c.4,1.7.6,3.8.6,6.3s-.2,4.5-.6,6.3h-12.1c-.4-1.8-.6-3.9-.6-6.3s.2-4.6.6-6.3h-18.1c.4,1.7.6,3.8.6,6.3s-.2,4.5-.6,6.3h-6c.4,1.7.6,3.8.6,6.3s-.2,4.5-.6,6.3h6c.4,1.7.6,3.8.6,6.3s-.2,4.5-.6,6.3h18.1c-.4-1.8-.6-3.9-.6-6.3s.2-4.6.6-6.3h12.1Z"/>
      <path class="st0" d="M445.1,164.3c0,2.4-.2,4.5-.6,6.3h-21.1c-.4-1.8-.6-3.9-.6-6.3s.2-4.6.6-6.3h-6c-.4-1.8-.6-3.9-.6-6.3s.2-4.6.6-6.3h-9c.4,1.7.6,3.8.6,6.3s-.2,4.5-.6,6.3c.4,1.7.6,3.8.6,6.3s-.2,4.5-.6,6.3h-12.1c-.4-1.8-.6-3.9-.6-6.3s.2-4.6.6-6.3c-.4-1.8-.6-3.9-.6-6.3s.2-4.6.6-6.3c-.4-1.8-.6-3.9-.6-6.3s.2-4.6.6-6.3c-.4-1.8-.6-3.9-.6-6.3s.2-4.6.6-6.3c-.4-1.8-.6-3.9-.6-6.3s.2-4.6.6-6.3c-.4-1.8-.6-3.9-.6-6.3s.2-4.6.6-6.3c-.4-1.8-.6-3.9-.6-6.3s.2-4.6.6-6.3h12.1c.4,1.7.6,3.8.6,6.3s-.2,4.5-.6,6.3c.4,1.7.6,3.8.6,6.3s-.2,4.5-.6,6.3c.4,1.7.6,3.8.6,6.3s-.2,4.5-.6,6.3c.4,1.7.6,3.8.6,6.3s-.2,4.5-.6,6.3h9c-.4-1.8-.6-3.9-.6-6.3s.2-4.6.6-6.3h6c-.4-1.8-.6-3.9-.6-6.3s.2-4.6.6-6.3h18.1c.4,1.7.6,3.8.6,6.3s-.2,4.5-.6,6.3h-12.1c.4,1.7.6,3.8.6,6.3s-.2,4.5-.6,6.3h-6c.4,1.7.6,3.8.6,6.3s-.2,4.5-.6,6.3h6c.4,1.7.6,3.8.6,6.3s-.2,4.5-.6,6.3h15.1c.4,1.7.6,3.8.6,6.3Z"/>
      <path class="st0" d="M504.8,145.4h-6c.4,1.7.6,3.8.6,6.3s-.2,4.5-.6,6.3h-6c.4,1.7.6,3.8.6,6.3s-.2,4.5-.6,6.3h-24.1c.4,1.7.6,3.8.6,6.3s-.2,4.5-.6,6.3c.4,1.7.6,3.8.6,6.3s-.2,4.5-.6,6.3h-12.1c-.4-1.8-.6-3.9-.6-6.3s.2-4.6.6-6.3c-.4-1.8-.6-3.9-.6-6.3s.2-4.6.6-6.3c-.4-1.8-.6-3.9-.6-6.3s.2-4.6.6-6.3c-.4-1.8-.6-3.9-.6-6.3s.2-4.6.6-6.3c-.4-1.8-.6-3.9-.6-6.3s.2-4.6.6-6.3c-.4-1.8-.6-3.9-.6-6.3s.2-4.6.6-6.3c-.4-1.8-.6-3.9-.6-6.3s.2-4.6.6-6.3h12.1c.4,1.7.6,3.8.6,6.3s-.2,4.5-.6,6.3h6c.4,1.7.6,3.8.6,6.3s-.2,4.5-.6,6.3h-6c.4,1.7.6,3.8.6,6.3s-.2,4.5-.6,6.3c.4,1.7.6,3.8.6,6.3s-.2,4.5-.6,6.3h18.1c-.4-1.8-.6-3.9-.6-6.3s.2-4.6.6-6.3h6c-.4-1.8-.6-3.9-.6-6.3s.2-4.6.6-6.3h-6c-.4-1.8-.6-3.9-.6-6.3s.2-4.6.6-6.3h-12.1c-.4-1.8-.6-3.9-.6-6.3s.2-4.6.6-6.3h18.1c.4,1.7.6,3.8.6,6.3s-.2,4.5-.6,6.3h6c.4,1.7.6,3.8.6,6.3s-.2,4.5-.6,6.3h6c.4,1.7.6,3.8.6,6.3s-.2,4.5-.6,6.3Z"/>
      <path class="st0" d="M565.2,145.4h-4.5c.4,1.7.6,3.8.6,6.3s-.2,4.5-.6,6.3h-7.5c.4,1.7.6,3.8.6,6.3s-.2,4.5-.6,6.3h-24.1c-.4-1.8-.6-3.9-.6-6.3s.2-4.6.6-6.3h-7.5c-.4-1.8-.6-3.9-.6-6.3s.2-4.6.6-6.3h-4.5c-.4-1.8-.6-3.9-.6-6.3s.2-4.6.6-6.3h4.5c-.4-1.8-.6-3.9-.6-6.3s.2-4.6.6-6.3h7.5c-.4-1.8-.6-3.9-.6-6.3s.2-4.6.6-6.3h24.1c.4,1.7.6,3.8.6,6.3s-.2,4.5-.6,6.3h7.5c.4,1.7.6,3.8.6,6.3s-.2,4.5-.6,6.3h4.5c.4,1.7.6,3.8.6,6.3s-.2,4.5-.6,6.3ZM553.1,145.4c-.4-1.8-.6-3.9-.6-6.3s.2-4.6.6-6.3h-4.5c-.4-1.8-.6-3.9-.6-6.3s.2-4.6.6-6.3h-15.1c.4,1.7.6,3.8.6,6.3s-.2,4.5-.6,6.3h-4.5c.4,1.7.6,3.8.6,6.3s-.2,4.5-.6,6.3h4.5c.4,1.7.6,3.8.6,6.3s-.2,4.5-.6,6.3h15.1c-.4-1.8-.6-3.9-.6-6.3s.2-4.6.6-6.3h4.5Z"/>
      <path class="st0" d="M620.1,164.3c0,2.4-.2,4.5-.6,6.3h-36.2c-.4-1.8-.6-3.9-.6-6.3s.2-4.6.6-6.3h12.1c-.4-1.8-.6-3.9-.6-6.3s.2-4.6.6-6.3c-.4-1.8-.6-3.9-.6-6.3s.2-4.6.6-6.3c-.4-1.8-.6-3.9-.6-6.3s.2-4.6.6-6.3h-9c-.4-1.8-.6-3.9-.6-6.3s.2-4.6.6-6.3h21.1c.4,1.7.6,3.8.6,6.3s-.2,4.5-.6,6.3c.4,1.7.6,3.8.6,6.3s-.2,4.5-.6,6.3c.4,1.7.6,3.8.6,6.3s-.2,4.5-.6,6.3c.4,1.7.6,3.8.6,6.3s-.2,4.5-.6,6.3h12.1c.4,1.7.6,3.8.6,6.3ZM595.3,94.9c-.4-1.8-.6-3.9-.6-6.3s.2-4.6.6-6.3h12.1c.4,1.7.6,3.8.6,6.3s-.2,4.5-.6,6.3h-12.1Z"/>
      <path class="st0" d="M648.1,120.1h6c.4,1.7.6,3.8.6,6.3s-.2,4.5-.6,6.3h-4.5c.4,1.7.6,3.8.6,6.3s-.2,4.5-.6,6.3c.4,1.7.6,3.8.6,6.3s-.2,4.5-.6,6.3c.4,1.7.6,3.8.6,6.3s-.2,4.5-.6,6.3h-12.1c-.4-1.8-.6-3.9-.6-6.3s.2-4.6.6-6.3c-.4-1.8-.6-3.9-.6-6.3s.2-4.6.6-6.3c-.4-1.8-.6-3.9-.6-6.3s.2-4.6.6-6.3c-.4-1.8-.6-3.9-.6-6.3s.2-4.6.6-6.3c-.4-1.8-.6-3.9-.6-6.3s.2-4.6.6-6.3h10.6c.4,1.7.6,3.8.6,6.3s-.2,4.5-.6,6.3ZM686.4,139c0,2.4-.2,4.5-.6,6.3.4,1.7.6,3.8.6,6.3s-.2,4.5-.6,6.3c.4,1.7.6,3.8.6,6.3s-.2,4.5-.6,6.3h-12.1c-.4-1.8-.6-3.9-.6-6.3s.2-4.6.6-6.3c-.4-1.8-.6-3.9-.6-6.3s.2-4.6.6-6.3c-.4-1.8-.6-3.9-.6-6.3s.2-4.6.6-6.3c-.4-1.8-.6-3.9-.6-6.3s.2-4.6.6-6.3h-19.6c-.4-1.8-.6-3.9-.6-6.3s.2-4.6.6-6.3h24.1c.4,1.7.6,3.8.6,6.3s-.2,4.5-.6,6.3h7.5c.4,1.7.6,3.8.6,6.3s-.2,4.5-.6,6.3c.4,1.7.6,3.8.6,6.3Z"/>
      <path class="st0" d="M740.1,158c.4,1.7.6,3.8.6,6.3s-.2,4.5-.6,6.3h-24.1c-.4-1.8-.6-3.9-.6-6.3s.2-4.6.6-6.3h-6c-.4-1.8-.6-3.9-.6-6.3s.2-4.6.6-6.3c-.4-1.8-.6-3.9-.6-6.3s.2-4.6.6-6.3c-.4-1.8-.6-3.9-.6-6.3s.2-4.6.6-6.3h-12.1c-.4-1.8-.6-3.9-.6-6.3s.2-4.6.6-6.3h12.1c-.4-1.8-.6-3.9-.6-6.3s.2-4.6.6-6.3c-.4-1.8-.6-3.9-.6-6.3s.2-4.6.6-6.3h12.1c.4,1.7.6,3.8.6,6.3s-.2,4.5-.6,6.3c.4,1.7.6,3.8.6,6.3s-.2,4.5-.6,6.3h18.1c.4,1.7.6,3.8.6,6.3s-.2,4.5-.6,6.3h-18.1c.4,1.7.6,3.8.6,6.3s-.2,4.5-.6,6.3c.4,1.7.6,3.8.6,6.3s-.2,4.5-.6,6.3c.4,1.7.6,3.8.6,6.3s-.2,4.5-.6,6.3h18.1Z"/>
    </g>
  </g>
</svg>