<?xml version="1.0" encoding="UTF-8"?>
<svg id="Layer_1" data-name="Layer 1" xmlns="http://www.w3.org/2000/svg" viewBox="0 0 736.37 160.99">
  <defs>
    <style>
      .cls-1, .cls-2 {
        fill: #d5d5d5;
      }

      .cls-2 {
        font-family: VT323-Regular, VT323;
        font-size: 147.86px;
      }
    </style>
  </defs>
  <g id="Checkpoint">
    <g>
      <rect class="cls-1" x="34.26" y="27.73" width="13.05" height="13.05" transform="translate(-12.28 38.88) rotate(-45)"/>
      <rect class="cls-1" x="48.11" y="30.92" width="13.05" height="13.05" transform="translate(-10.48 49.6) rotate(-45)"/>
      <rect class="cls-1" x="62.23" y="34.22" width="13.05" height="13.05" transform="translate(-8.68 60.55) rotate(-45)"/>
      <rect class="cls-1" x="76.42" y="37.45" width="13.05" height="13.05" transform="translate(-6.8 71.54) rotate(-45)"/>
      <rect class="cls-1" x="79.52" y="51.51" width="13.05" height="13.05" transform="translate(-15.84 77.84) rotate(-45)"/>
      <rect class="cls-1" x="82.82" y="65.63" width="13.05" height="13.05" transform="translate(-24.86 84.31) rotate(-45)"/>
      <rect class="cls-1" x="86.19" y="79.71" width="13.05" height="13.05" transform="translate(-33.82 90.82) rotate(-45)"/>
      <rect class="cls-1" x="54.63" y="111.2" width="13.05" height="13.05" transform="translate(-65.33 77.73) rotate(-45)"/>
      <rect class="cls-1" x="40.79" y="108.01" width="13.05" height="13.05" transform="translate(-67.13 67) rotate(-45)"/>
      <rect class="cls-1" x="26.66" y="104.71" width="13.05" height="13.05" transform="translate(-68.94 56.05) rotate(-45)"/>
      <rect class="cls-1" x="12.47" y="101.48" width="13.05" height="13.05" transform="translate(-70.81 45.07) rotate(-45)"/>
      <rect class="cls-1" x="9.38" y="87.43" width="13.05" height="13.05" transform="translate(-61.78 38.76) rotate(-45)"/>
      <rect class="cls-1" x="6.08" y="73.3" width="13.05" height="13.05" transform="translate(-52.76 32.29) rotate(-45)"/>
      <rect class="cls-1" x="2.7" y="59.22" width="13.05" height="13.05" transform="translate(-43.78 25.77) rotate(-44.99)"/>
      <rect class="cls-1" x="30.38" y="72.39" width="10.47" height="10.47" transform="translate(-44.46 47.92) rotate(-45)"/>
      <rect class="cls-1" x="44.25" y="86.26" width="10.47" height="10.47" transform="translate(-50.2 61.79) rotate(-45)"/>
      <rect class="cls-1" x="61.48" y="69.02" width="10.47" height="10.47" transform="translate(-32.97 68.93) rotate(-45)"/>
      <rect class="cls-1" x="47.62" y="55.15" width="10.47" height="10.47" transform="translate(-27.22 55.06) rotate(-45)"/>
      <rect class="cls-1" x="48.57" y="68.32" width="10.47" height="10.47" transform="translate(-36.25 59.59) rotate(-45)"/>
      <rect class="cls-1" x="38.7" y="63.79" width="10.47" height="10.47" transform="translate(-35.94 51.28) rotate(-45)"/>
      <rect class="cls-1" x="31.85" y="56.94" width="10.47" height="10.47" transform="translate(-33.1 44.43) rotate(-45)"/>
      <rect class="cls-1" x="59.56" y="84.64" width="10.47" height="10.47" transform="translate(-44.58 72.14) rotate(-45)"/>
      <rect class="cls-1" x="52.65" y="77.73" width="10.47" height="10.47" transform="translate(-41.71 65.23) rotate(-45)"/>
      <rect class="cls-1" x="43.94" y="72.95" width="10.47" height="10.47" transform="translate(-40.88 57.67) rotate(-45)"/>
    </g>
    <text class="cls-2" transform="translate(133.1 123.11) scale(1.02 1.07)"><tspan x="0" y="0">Checkpoint</tspan></text>
  </g>
</svg>
