<?xml version="1.0" encoding="UTF-8"?>
<svg id="Layer_1" data-name="Layer 1" xmlns="http://www.w3.org/2000/svg" viewBox="0 0 176.72 176.69">
  <defs>
    <style>
      .cls-1 {
        fill: #777777;
      }
    </style>
  </defs>
  <rect class="cls-1" x="59.4" y="4.69" width="22.63" height="22.63" transform="translate(9.4 54.69) rotate(-45)"/>
  <rect class="cls-1" x="83.39" y="10.21" width="22.63" height="22.63" transform="translate(12.52 73.27) rotate(-45)"/>
  <rect class="cls-1" x="107.88" y="15.93" width="22.63" height="22.63" transform="translate(15.64 92.26) rotate(-45)"/>
  <rect class="cls-1" x="132.48" y="21.54" width="22.63" height="22.63" transform="translate(18.89 111.3) rotate(-45)"/>
  <rect class="cls-1" x="137.84" y="45.9" width="22.63" height="22.63" transform="translate(3.23 122.22) rotate(-45)"/>
  <rect class="cls-1" x="143.57" y="70.38" width="22.63" height="22.63" transform="translate(-12.4 133.44) rotate(-45)"/>
  <rect class="cls-1" x="149.41" y="94.78" width="22.63" height="22.63" transform="translate(-27.95 144.72) rotate(-45)"/>
  <rect class="cls-1" x="94.7" y="149.37" width="22.63" height="22.63" transform="translate(294.6 199.35) rotate(135)"/>
  <rect class="cls-1" x="70.71" y="143.85" width="22.63" height="22.63" transform="translate(249.73 206.88) rotate(135)"/>
  <rect class="cls-1" x="46.22" y="138.12" width="22.63" height="22.63" transform="translate(203.89 214.42) rotate(135)"/>
  <rect class="cls-1" x="21.62" y="132.52" width="22.63" height="22.63" transform="translate(157.92 222.26) rotate(135)"/>
  <rect class="cls-1" x="16.26" y="108.16" width="22.63" height="22.63" transform="translate(131.55 184.46) rotate(135)"/>
  <rect class="cls-1" x="10.53" y="83.68" width="22.63" height="22.63" transform="translate(104.46 146.71) rotate(135)"/>
  <rect class="cls-1" x="4.69" y="59.28" width="22.63" height="22.63" transform="translate(77.23 109.19) rotate(135)"/>
  <rect class="cls-1" x="52.66" y="82.09" width="18.15" height="18.15" transform="translate(169.86 111.98) rotate(135)"/>
  <rect class="cls-1" x="76.7" y="106.13" width="18.15" height="18.15" transform="translate(227.9 136.02) rotate(135)"/>
  <rect class="cls-1" x="106.58" y="76.26" width="18.15" height="18.15" transform="translate(257.78 63.89) rotate(135)"/>
  <rect class="cls-1" x="82.54" y="52.22" width="18.15" height="18.15" transform="translate(199.74 39.85) rotate(135)"/>
  <rect class="cls-1" x="84.19" y="75.04" width="18.15" height="18.15" transform="translate(218.69 77.65) rotate(135)"/>
  <rect class="cls-1" x="67.09" y="67.18" width="18.15" height="18.15" transform="translate(183.94 76.32) rotate(135)"/>
  <rect class="cls-1" x="55.22" y="55.31" width="18.15" height="18.15" transform="translate(155.28 64.45) rotate(135)"/>
  <rect class="cls-1" x="103.24" y="103.34" width="18.15" height="18.15" transform="translate(271.23 112.48) rotate(135)"/>
  <rect class="cls-1" x="91.26" y="91.35" width="18.15" height="18.15" transform="translate(242.3 100.5) rotate(135)"/>
  <rect class="cls-1" x="76.16" y="83.06" width="18.15" height="18.15" transform="translate(210.67 97.02) rotate(135)"/>
</svg>
