<?xml version="1.0" encoding="UTF-8"?>
<svg id="Layer_2" data-name="Layer 2" xmlns="http://www.w3.org/2000/svg" viewBox="0 0 350 200">
  <defs>
    <style>
      .cls-1 {
        font-size: 3.5px;
        letter-spacing: .25em;
      }

      .cls-1, .cls-2 {
        fill: #001e1c;
        font-family: VT323-Regular, VT323;
      }

      .cls-3 {
        fill: #bfeeef;
      }

      .cls-4 {
        fill: #06090a;
      }

      .cls-2 {
        font-size: 4px;
        letter-spacing: .25em;
      }
    </style>
  </defs>
  <g id="Circle_Dark">
    <rect class="cls-4" width="350" height="200"/>
    <g id="Vertical">
      <text class="cls-1" transform="translate(39.33 .4) rotate(90) scale(1.14 1)"><tspan x="0" y="0">*****************************************************************************</tspan></text>
      <text class="cls-1" transform="translate(77.82 .4) rotate(90) scale(1.14 1)"><tspan x="0" y="0">*****************************************************************************</tspan></text>
      <text class="cls-1" transform="translate(116.32 .4) rotate(90) scale(1.14 1)"><tspan x="0" y="0">*****************************************************************************</tspan></text>
      <text class="cls-1" transform="translate(154.81 .4) rotate(90) scale(1.14 1)"><tspan x="0" y="0">*****************************************************************************</tspan></text>
      <text class="cls-1" transform="translate(193.3 .4) rotate(90) scale(1.14 1)"><tspan x="0" y="0">*****************************************************************************</tspan></text>
      <text class="cls-1" transform="translate(270.28 .4) rotate(90) scale(1.14 1)"><tspan x="0" y="0">*****************************************************************************</tspan></text>
      <text class="cls-1" transform="translate(308.78 .4) rotate(90) scale(1.14 1)"><tspan x="0" y="0">*****************************************************************************</tspan></text>
      <text class="cls-1" transform="translate(231.79 .4) rotate(90) scale(1.14 1)"><tspan x="0" y="0">*****************************************************************************</tspan></text>
    </g>
    <g id="Horizontal">
      <text class="cls-2" transform="translate(.26 20.93) scale(.88 1)"><tspan x="0" y="0">**********************************************************************************************************************************************************</tspan></text>
      <text class="cls-2" transform="translate(.26 38.74) scale(.88 1)"><tspan x="0" y="0">**********************************************************************************************************************************************************</tspan></text>
      <text class="cls-2" transform="translate(.26 92.17) scale(.88 1)"><tspan x="0" y="0">**********************************************************************************************************************************************************</tspan></text>
      <text class="cls-2" transform="translate(.26 74.36) scale(.88 1)"><tspan x="0" y="0">**********************************************************************************************************************************************************</tspan></text>
      <text class="cls-2" transform="translate(.26 56.55) scale(.88 1)"><tspan x="0" y="0">**********************************************************************************************************************************************************</tspan></text>
      <text class="cls-2" transform="translate(.26 109.99) scale(.88 1)"><tspan x="0" y="0">**********************************************************************************************************************************************************</tspan></text>
      <text class="cls-2" transform="translate(.26 127.8) scale(.88 1)"><tspan x="0" y="0">**********************************************************************************************************************************************************</tspan></text>
      <text class="cls-2" transform="translate(.26 163.42) scale(.88 1)"><tspan x="0" y="0">**********************************************************************************************************************************************************</tspan></text>
      <text class="cls-2" transform="translate(.26 181.23) scale(.88 1)"><tspan x="0" y="0">**********************************************************************************************************************************************************</tspan></text>
      <text class="cls-2" transform="translate(.26 145.61) scale(.88 1)"><tspan x="0" y="0">**********************************************************************************************************************************************************</tspan></text>
    </g>
    <path class="cls-3" d="M229.55,83.64v-10.91h-5.45v-10.91h-5.45v-5.45h-5.45v-5.45h-10.91v-5.45h-10.91v-5.45h-32.73v5.45h-10.91v5.45h-10.91v5.45h-5.45v5.45h-5.45v10.91h-5.45v10.91h-5.45v32.73h5.45v10.91h5.45v10.91h5.45v5.45h5.45v5.45h10.91v5.45h10.91v5.45h32.73v-5.45h10.91v-5.45h10.91v-5.45h5.45v-5.45h5.45v-10.91h5.45v-10.91h5.45v-32.73h-5.45ZM212.08,113.9v9.27h-4.63v9.27h-9.27v4.63h-9.27v4.63h-27.81v-4.63h-9.27v-4.63h-9.27v-9.27h-4.63v-9.27h-4.63v-27.81h4.63v-9.27h4.63v-9.27h9.27v-4.63h9.27v-4.63h27.81v4.63h9.27v4.63h9.27v9.27h4.63v9.27h4.63v27.81h-4.63Z"/>
  </g>
</svg>