<svg width="800" height="600" viewBox="0 0 800 600" xmlns="http://www.w3.org/2000/svg">
  <defs>
    <linearGradient id="grad1" x1="0%" y1="0%" x2="100%" y2="100%">
      <stop offset="0%" style="stop-color:#32cd32;stop-opacity:0.15" />
      <stop offset="100%" style="stop-color:#32cd32;stop-opacity:0.05" />
    </linearGradient>
    <linearGradient id="grad2" x1="0%" y1="0%" x2="100%" y2="100%">
      <stop offset="0%" style="stop-color:#32cd32;stop-opacity:0.1" />
      <stop offset="100%" style="stop-color:#32cd32;stop-opacity:0.03" />
    </linearGradient>
  </defs>
  
  <!-- Large geometric shape - top left -->
  <polygon points="50,80 120,50 180,120 110,150" fill="url(#grad1)" stroke="#32cd32" stroke-width="1" stroke-opacity="0.2"/>
  
  <!-- Rocket-like shape - left center -->
  <polygon points="80,200 60,250 100,280 120,230" fill="url(#grad2)" stroke="#32cd32" stroke-width="1" stroke-opacity="0.15"/>
  <circle cx="90" cy="240" r="8" fill="#32cd32" fill-opacity="0.1"/>
  
  <!-- Complex multi-faceted shape - top right -->
  <polygon points="650,60 720,40 750,100 700,130 680,90" fill="url(#grad1)" stroke="#32cd32" stroke-width="1" stroke-opacity="0.2"/>
  <polygon points="680,90 720,80 740,120 700,140" fill="url(#grad2)" stroke="#32cd32" stroke-width="1" stroke-opacity="0.15"/>
  
  <!-- Folder-like shape - far right -->
  <polygon points="700,180 750,160 780,200 730,220" fill="url(#grad1)" stroke="#32cd32" stroke-width="1" stroke-opacity="0.2"/>
  <rect x="710" y="190" width="40" height="20" fill="#32cd32" fill-opacity="0.08" stroke="#32cd32" stroke-width="1" stroke-opacity="0.1"/>
  
  <!-- Hexagonal shape - center -->
  <polygon points="400,150 450,130 500,150 500,200 450,220 400,200" fill="url(#grad2)" stroke="#32cd32" stroke-width="1" stroke-opacity="0.15"/>
  
  <!-- Diamond shape - bottom left -->
  <polygon points="150,400 200,350 250,400 200,450" fill="url(#grad1)" stroke="#32cd32" stroke-width="1" stroke-opacity="0.2"/>
  
  <!-- Triangular cluster - bottom right -->
  <polygon points="600,450 650,400 700,450" fill="url(#grad2)" stroke="#32cd32" stroke-width="1" stroke-opacity="0.15"/>
  <polygon points="620,470 650,430 680,470" fill="url(#grad1)" stroke="#32cd32" stroke-width="1" stroke-opacity="0.1"/>
  
  <!-- Small floating elements -->
  <circle cx="300" cy="100" r="12" fill="#32cd32" fill-opacity="0.08" stroke="#32cd32" stroke-width="1" stroke-opacity="0.1"/>
  <circle cx="500" cy="350" r="8" fill="#32cd32" fill-opacity="0.06" stroke="#32cd32" stroke-width="1" stroke-opacity="0.08"/>
  <circle cx="200" cy="300" r="6" fill="#32cd32" fill-opacity="0.1" stroke="#32cd32" stroke-width="1" stroke-opacity="0.12"/>
</svg>
